<svg width="54" height="54" viewBox="0 0 54 54" fill="none" xmlns="http://www.w3.org/2000/svg">
<path d="M50.8608 44.4943L47.2496 40.8269C46.5426 40.1271 45.6237 39.6814 44.6365 39.5592C43.6494 39.4371 42.6495 39.6455 41.7934 40.1519L37.5746 36.0006C41.1059 32.0591 42.96 26.8953 42.7424 21.6077C42.5248 16.3202 40.2527 11.3261 36.4094 7.68811C32.5662 4.05008 27.4552 2.05514 22.1636 2.1277C16.8721 2.20025 11.8177 4.33457 8.07563 8.07661C4.33359 11.8186 2.19927 16.8731 2.12672 22.1646C2.05416 27.4562 4.0491 32.5672 7.68714 36.4104C11.3252 40.2537 16.3192 42.5258 21.6067 42.7434C26.8943 42.961 32.0581 41.1069 35.9996 37.5756L40.1734 41.7381C39.667 42.5943 39.4586 43.5941 39.5808 44.5813C39.7029 45.5684 40.1486 46.4873 40.8484 47.1943L44.5159 50.8618C45.3602 51.7062 46.5055 52.1805 47.6996 52.1805C48.8937 52.1805 50.0389 51.7062 50.8833 50.8618C51.7277 50.0174 52.2021 48.8722 52.2021 47.6781C52.2021 46.4839 51.7277 45.3387 50.8833 44.4943H50.8608ZM22.4997 38.2506C19.3847 38.2506 16.3396 37.3269 13.7495 35.5963C11.1595 33.8657 9.14079 31.4059 7.94871 28.5279C6.75664 25.65 6.44474 22.4832 7.05245 19.4281C7.66017 16.3729 9.1602 13.5665 11.3629 11.3638C13.5655 9.16118 16.3719 7.66115 19.4271 7.05343C22.4823 6.44572 25.649 6.75762 28.527 7.94969C31.4049 9.14177 33.8647 11.1605 35.5953 13.7505C37.3259 16.3406 38.2496 19.3857 38.2496 22.5007C38.2496 26.6778 36.5903 30.6839 33.6366 33.6376C30.6829 36.5913 26.6769 38.2506 22.4997 38.2506ZM21.3747 27.0007H14.6248V15.7507C14.6248 15.4524 14.7433 15.1662 14.9543 14.9553C15.1653 14.7443 15.4514 14.6258 15.7498 14.6258H20.2497C20.5481 14.6258 20.8343 14.7443 21.0452 14.9553C21.2562 15.1662 21.3747 15.4524 21.3747 15.7507V27.0007ZM30.3747 27.0007H23.6247V20.2507C23.6247 19.9524 23.7432 19.6662 23.9542 19.4552C24.1652 19.2443 24.4513 19.1257 24.7497 19.1257H29.2497C29.5481 19.1257 29.8342 19.2443 30.0452 19.4552C30.2562 19.6662 30.3747 19.9524 30.3747 20.2507V27.0007ZM12.3748 28.1257H32.6247V30.3757H12.3748V28.1257Z" fill="#186BAD"/>
</svg>
