<svg width="28" height="28" viewBox="0 0 28 28" fill="none" xmlns="http://www.w3.org/2000/svg">
<path fill-rule="evenodd" clip-rule="evenodd" d="M14.0007 18.6512C11.4313 18.6512 9.34854 16.5694 9.34854 14C9.34854 11.4306 11.4313 9.34878 13.9998 9.34878C16.5691 9.34878 18.6519 11.4306 18.6519 14C18.6519 16.5684 16.5691 18.6512 13.9998 18.6512H14.0007ZM8.24644 0.129174C3.07289 0.365405 0.354817 3.27547 0.12988 8.24668C-0.0432934 12.0094 -0.0432934 15.9905 0.12988 19.7542C0.354817 24.7245 3.07289 27.6355 8.24644 27.8708C12.0101 28.043 15.9903 28.043 19.754 27.8708C24.7252 27.644 27.6343 24.9297 27.8715 19.7542C28.0428 15.9896 28.0419 12.0113 27.8715 8.24668C27.64 3.17947 24.8212 0.359758 19.754 0.129174C15.9903 -0.0430581 12.0101 -0.0430581 8.24644 0.129174ZM19.6392 2.64113C23.3982 2.81242 25.1892 4.60157 25.3596 8.36056C25.529 12.0461 25.528 15.9538 25.3596 19.6394C25.1845 23.5066 23.3012 25.1923 19.6392 25.3598C15.9527 25.5273 12.0478 25.5273 8.36127 25.3598C4.69921 25.1923 2.81689 23.5066 2.64089 19.6394C2.47243 15.9538 2.47243 12.0461 2.64089 8.36056C2.80748 4.69851 4.49404 2.81807 8.36127 2.64113C12.0478 2.47266 15.9527 2.47172 19.6392 2.64113ZM23.1243 6.55071C23.1243 7.47493 22.3742 8.22503 21.45 8.22503C20.5239 8.22503 19.7747 7.47587 19.7747 6.55071C19.7747 5.62555 20.5239 4.87638 21.45 4.87638C22.3742 4.87544 23.1243 5.62555 23.1243 6.55071ZM14.0007 6.834C10.0431 6.834 6.83376 10.0424 6.83376 14C6.83376 17.9576 10.0431 21.166 13.9998 21.166C17.9583 21.166 21.1667 17.9576 21.1667 14C21.1667 10.0424 17.9583 6.834 14.0007 6.834Z" fill="white"/>
</svg>
