<svg width="25" height="25" viewBox="0 0 25 25" fill="none" xmlns="http://www.w3.org/2000/svg">
<path d="M16.1774 19.7602C16.25 19.8328 16.3075 19.919 16.3468 20.0138C16.3861 20.1086 16.4063 20.2103 16.4063 20.3129C16.4063 20.4156 16.3861 20.5172 16.3468 20.6121C16.3075 20.7069 16.25 20.7931 16.1774 20.8657C16.1048 20.9383 16.0186 20.9958 15.9238 21.0351C15.8289 21.0744 15.7273 21.0946 15.6246 21.0946C15.522 21.0946 15.4203 21.0744 15.3255 21.0351C15.2307 20.9958 15.1445 20.9383 15.0719 20.8657L7.2594 13.0532C7.18677 12.9806 7.12914 12.8944 7.08983 12.7996C7.05051 12.7048 7.03027 12.6031 7.03027 12.5004C7.03027 12.3978 7.05051 12.2961 7.08983 12.2013C7.12914 12.1064 7.18677 12.0203 7.2594 11.9477L15.0719 4.1352C15.2185 3.98861 15.4173 3.90625 15.6246 3.90625C15.832 3.90625 16.0308 3.98861 16.1774 4.1352C16.324 4.28179 16.4063 4.48062 16.4063 4.68793C16.4063 4.89525 16.324 5.09407 16.1774 5.24067L8.91663 12.5004L16.1774 19.7602Z" fill="#898A8B"/>
</svg>
