<svg width="54" height="54" viewBox="0 0 54 54" fill="none" xmlns="http://www.w3.org/2000/svg">
<path d="M50.5569 42.3449L48.3069 33.6599L41.2194 7.58257C41.0663 7.00734 40.6914 6.51624 40.1769 6.21683C39.6624 5.91741 39.0502 5.83408 38.4744 5.98508L29.767 8.23507C29.5592 8.00477 29.306 7.81993 29.0233 7.69215C28.7407 7.56438 28.4347 7.49643 28.1245 7.49257H5.62462C5.02789 7.49257 4.45559 7.72962 4.03364 8.15158C3.61168 8.57353 3.37463 9.14582 3.37463 9.74256V45.7423C3.37463 46.3391 3.61168 46.9114 4.03364 47.3333C4.45559 47.7553 5.02789 47.9923 5.62462 47.9923H28.1245C28.7212 47.9923 29.2935 47.7553 29.7155 47.3333C30.1374 46.9114 30.3745 46.3391 30.3745 45.7423V27.7425L35.3244 46.2373C35.4563 46.7282 35.7505 47.16 36.159 47.4623C36.5676 47.7646 37.0665 47.9197 37.5744 47.9023C37.7688 47.9244 37.9651 47.9244 38.1594 47.9023L49.0269 44.9998C49.3142 44.923 49.5834 44.79 49.819 44.6085C50.0546 44.427 50.2518 44.2006 50.3994 43.9424C50.6367 43.4446 50.6924 42.8794 50.5569 42.3449ZM14.5571 43.5824H7.80711V39.0824H14.5571V43.5824ZM14.5571 34.5824H7.80711V21.0825H14.5571V34.5824ZM14.5571 16.5825H7.80711V12.0825H14.5571V16.5825ZM25.807 43.5824H19.057V39.0824H25.807V43.5824ZM25.807 34.5824H19.057V21.0825H25.807V34.5824ZM25.807 16.5825H19.057V12.0825H25.807V16.5825ZM30.8695 12.6675L37.3944 10.9125L38.5644 15.255L32.0395 17.01L30.8695 12.6675ZM36.6969 34.4024L33.2095 21.3525L39.7344 19.5975L43.2219 32.6474L36.6969 34.4024ZM38.9469 43.0874L37.7769 38.7449L44.3019 36.9899L45.4719 41.3324L38.9469 43.0874Z" fill="#186BAD"/>
</svg>
