<svg width="84" height="74" viewBox="0 0 84 74" fill="none" xmlns="http://www.w3.org/2000/svg">
<path d="M41.9666 19.832C35.0618 19.832 29.1986 24.568 28.6442 30.6212C28.6106 30.9764 28.5938 31.2872 28.5938 31.598V33.6108C34.793 31.7312 37.6489 28.7712 38.9257 26.5512C39.3961 25.7372 40.2866 25.234 41.2946 25.1896C42.3026 25.1452 43.2266 25.5596 43.781 26.3144L43.9658 26.566C45.8306 29.0968 48.1826 32.1752 55.3058 33.0188V31.5832C55.3058 28.4456 53.9114 25.4856 51.4081 23.2508C48.8882 21.0456 45.5282 19.832 41.9666 19.832Z" fill="#FD9D4C"/>
<path d="M58.1284 31.8203V39.6495C58.1284 40.4043 58.0612 41.1443 57.9268 41.8991C60.3964 41.5587 62.3116 39.4275 62.3116 36.8375C62.3116 34.3363 60.4972 32.2347 58.1284 31.8203Z" fill="#F167DE"/>
<path d="M34.2387 54.6409C34.1547 54.6261 34.0707 54.6113 33.9867 54.6113C33.8355 54.6113 33.7011 54.6409 33.5667 54.7001C33.3651 54.8037 33.1971 54.9665 33.1299 55.1737L33.0291 55.4697C32.9619 55.6621 32.9955 55.8841 33.0963 56.0617C33.2139 56.2393 33.3987 56.3725 33.6171 56.4317L38.7579 57.7637C38.9931 57.8229 39.2283 57.8081 39.4299 57.7045C39.6315 57.6009 39.7995 57.4381 39.8667 57.2309L39.9675 56.9349C40.0347 56.7425 40.0011 56.5205 39.9003 56.3429C39.7827 56.1653 39.5979 56.0321 39.3627 55.9729L34.2387 54.6409Z" fill="#8495A6"/>
<path d="M41.6978 27.8688L41.513 27.6172C39.7826 30.3404 36.305 34.0108 28.661 36.1272L28.5938 35.9348V39.5756C28.5938 40.6116 28.745 41.6624 29.0642 42.6984C30.6602 47.7896 35.969 51.3416 41.9666 51.3416C49.325 51.3416 55.3225 46.058 55.3225 39.5756V35.4464C46.6201 34.5436 43.6802 30.5624 41.6978 27.8688Z" fill="#C8D6E4"/>
<path d="M26.0741 41.6629C25.9565 40.9673 25.8893 40.2717 25.8893 39.5909V31.7617C23.5037 32.1909 21.7061 34.2777 21.7061 36.7789C21.7061 39.3541 23.6213 41.5001 26.0909 41.8405C26.0741 41.7813 26.0741 41.7221 26.0741 41.6629Z" fill="#F167DE"/>
<path d="M60.9836 30.3106C60.8828 25.1602 59.0852 21.0902 55.658 18.219C49.946 13.4682 41.8652 13.7938 41.5964 13.8086C35.8004 13.8234 31.214 15.3478 27.938 18.3522C23.3012 22.6294 22.8308 28.5346 22.814 30.355C20.5292 31.6574 18.9668 34.0402 18.9668 36.7782C18.9668 39.679 20.6972 42.1654 23.2172 43.4086C23.1164 45.9098 23.7548 51.4154 30.374 55.1746C30.2396 55.8702 30.3236 56.5806 30.71 57.2022C31.1804 57.9422 31.9364 58.4898 32.8604 58.7266L38.0012 60.0586C38.3372 60.1474 38.69 60.1918 39.026 60.1918C39.614 60.1918 40.202 60.0586 40.7396 59.807C41.5796 59.4074 42.2012 58.7266 42.47 57.9126L42.5708 57.6166C42.8396 56.8026 42.7388 55.9442 42.2852 55.1894C41.8148 54.4494 41.0588 53.9018 40.1348 53.665L39.7316 53.5614C40.4708 53.6502 41.21 53.7242 41.966 53.7242C48.938 53.7242 54.8684 49.7874 57.086 44.2966C57.1364 44.2966 57.17 44.3114 57.2036 44.3114C61.5044 44.3114 65.0156 40.9518 65.0156 36.8078C65.0324 34.0106 63.386 31.5834 60.9836 30.3106ZM21.6884 36.793C21.6884 34.2918 23.5028 32.1902 25.8716 31.7758V39.605C25.8716 40.3006 25.9388 40.9962 26.0564 41.677C26.0732 41.7362 26.0564 41.7954 26.0732 41.8546C23.6036 41.4994 21.6884 39.3682 21.6884 36.793ZM32.2556 52.5994C32.0204 52.7178 31.8356 52.8954 31.634 53.0582C26.7788 50.2166 25.9388 46.3538 25.9052 44.193C26.1908 44.2226 26.4764 44.2818 26.7788 44.2818C26.7956 44.2818 26.8292 44.2818 26.846 44.2818C28.3244 47.967 31.4492 50.8826 35.3804 52.4514L35.0108 52.3626C34.07 52.111 33.0956 52.1998 32.2556 52.5994ZM39.8996 56.3586C40.0172 56.5362 40.034 56.7582 39.9668 56.9506L39.866 57.2466C39.7988 57.4538 39.6476 57.6166 39.4292 57.7202C39.2276 57.8238 38.9756 57.8386 38.7572 57.7794L33.6164 56.4474C33.3812 56.3882 33.1964 56.255 33.0956 56.0774C32.978 55.885 32.9612 55.6778 33.0284 55.4854L33.1292 55.1894C33.1964 54.9822 33.3476 54.8194 33.566 54.7158C33.7004 54.6566 33.8348 54.627 33.986 54.627C34.07 54.627 34.154 54.6418 34.238 54.6566L39.3788 55.9886C39.5972 56.0478 39.782 56.181 39.8996 56.3586ZM55.322 39.5902C55.322 46.0726 49.3244 51.3562 41.966 51.3562C35.9516 51.3562 30.6428 47.8042 29.0636 42.713C28.7444 41.677 28.5932 40.6262 28.5932 39.5902V35.9494L28.6604 36.1418C36.3044 34.0254 39.782 30.355 41.5124 27.6318L41.6972 27.8834C43.6796 30.5622 46.6196 34.5582 55.322 35.4758V39.5902ZM55.322 33.019C48.182 32.1754 45.83 29.097 43.982 26.5662L43.7972 26.3146C43.2428 25.5598 42.3188 25.1454 41.3108 25.1898C40.286 25.2342 39.4124 25.7522 38.942 26.5514C37.6652 28.7566 34.7924 31.7166 28.61 33.611V31.5982C28.61 31.2874 28.6268 30.9618 28.6604 30.6214C29.2316 24.583 35.078 19.8322 41.9828 19.8322C45.5444 19.8322 48.9044 21.0606 51.4244 23.2658C53.9444 25.5006 55.322 28.4606 55.322 31.5982V33.019ZM53.3396 21.5638C50.282 18.8998 46.25 17.4346 41.966 17.4346C34.1036 17.4346 27.434 22.5702 26.1572 29.3486C25.9724 29.3634 25.7708 29.3782 25.586 29.4078C25.7876 27.247 26.594 23.0586 29.9204 19.995C32.6588 17.479 36.59 16.2062 41.6636 16.1914C41.7308 16.1914 48.9044 15.8954 53.7764 19.9506C56.4644 22.1854 57.8756 25.397 58.1612 29.4226C58.0436 29.4078 57.9428 29.393 57.8252 29.393C57.3212 26.4626 55.7756 23.7246 53.3396 21.5638ZM57.926 41.8842C58.0604 41.1294 58.1276 40.3746 58.1276 39.6346V31.8202C60.5132 32.2494 62.3108 34.3362 62.3108 36.8374C62.3108 39.4126 60.3956 41.5438 57.926 41.8842Z" fill="#332195"/>
</svg>
