<svg width="66" height="66" viewBox="0 0 66 66" fill="none" xmlns="http://www.w3.org/2000/svg">
<path d="M46.107 7.67969H4.50781V63.4224H46.107V7.67969Z" fill="white"/>
<path d="M46.1064 7.67969H7.0459V60.8838H46.1064V7.67969Z" fill="#B5BFC1"/>
<path d="M51.1545 12.0258V58.3212H9.55566V2.57812H41.7068V12.0258H51.1545Z" fill="white"/>
<path d="M51.1537 12.0258H41.7061V2.57812L51.1537 12.0258Z" fill="#EF5F36"/>
<path d="M21.3224 24.916H17.8975V32.6922H21.3224V24.916Z" fill="white"/>
<path d="M29.3165 22.459H24.6025V33.3373H29.3165V22.459Z" fill="#F4C551"/>
<path d="M36.2296 21.2891H32.8047V32.6913H36.2296V21.2891Z" fill="white"/>
<path d="M44.3273 18.832H39.6133V33.3364H44.3273V18.832Z" fill="#F4C551"/>
<path d="M38.8308 8.79297H13.5254V12.6608H38.8308V8.79297Z" fill="#46CBD6"/>
<path d="M17.0711 38.1797V40.4363H14.8145V38.1797H17.0711ZM18.3601 36.8906H13.5254V41.7254H18.3601V36.8906ZM17.0711 44.698V46.9546H14.8145V44.698H17.0711ZM18.3601 43.4089H13.5254V48.2437H18.3601V43.4089Z" fill="#EF5F36"/>
<path d="M18.3601 49.9258H13.5254V54.7607H18.3601V49.9258Z" fill="#EF5F36"/>
<path d="M55.2549 57.5293V59.8572H56.2359H58.4795H59.4607V57.5293H55.2549Z" fill="white"/>
<path d="M55.2549 54.6572V57.5277H59.4607V54.6215C57.6406 54.5961 55.2549 54.5773 55.2549 54.6572Z" fill="#F4C551"/>
<path d="M59.4607 23.918H55.2549V54.6024H59.4607V23.918Z" fill="#46CBD6"/>
<path d="M58.4799 59.8555H56.2363V62.7856H58.4799V59.8555Z" fill="white"/>
<path d="M55.2549 21.8266V23.9189H59.4607V21.8266L57.3577 16.8145L55.2549 21.8266Z" fill="white"/>
<path d="M45.4626 62.7778H5.15234V8.32422H7.04662V7.03516H3.86328V64.0669H46.7517V60.8838H45.4626V62.7778Z" fill="black"/>
<path d="M41.9737 1.93359H8.91113V58.9657H51.799V11.7588L41.9737 1.93359ZM42.3513 4.13415L49.5983 11.3813H42.3513V4.13415ZM10.2002 57.6767V3.22266H41.0623V12.6703H50.51V57.6767H10.2002Z" fill="black"/>
<path d="M21.9669 24.2707H17.2529V33.336H21.9669V24.2707ZM20.6778 32.0468H18.542V25.5596H20.6778V32.0468ZM36.8743 20.6445H32.1603V33.3359H36.8743V20.6445ZM35.5852 32.0468H33.4494V21.9336H35.5852V32.0468Z" fill="black"/>
<path d="M47.1825 40.1445H20.3076V41.4336H47.1825V40.1445Z" fill="black"/>
<path d="M47.1825 37.502H20.3076V38.791H47.1825V37.502Z" fill="black"/>
<path d="M47.1825 46.6641H20.3076V47.9531H47.1825V46.6641Z" fill="black"/>
<path d="M47.1825 44.0215H20.3076V45.3105H47.1825V44.0215Z" fill="black"/>
<path d="M47.1825 53.1816H20.3076V54.4707H47.1825V53.1816Z" fill="black"/>
<path d="M47.1825 50.5391H20.3076V51.8281H47.1825V50.5391Z" fill="black"/>
<path d="M20.8316 16.1328H13.5264V17.4219H20.8316V16.1328Z" fill="black"/>
<path d="M18.5724 18.4961H13.5264V19.7852H18.5724V18.4961Z" fill="black"/>
<path d="M60.8484 44.4346V54.0007C60.6374 53.9967 60.3841 53.9923 60.1051 53.9875V51.7873V51.1428V36.7246V23.9188V23.2743V21.6967L57.3577 15.1484L54.6104 21.6967V23.2743V23.9188V36.7246V51.1429V51.7875V57.5283V58.1728V60.5008H55.5913V63.4309H59.124V60.5008H60.1051V58.1728V57.5283V55.277C60.9042 55.2904 61.4789 55.3021 61.4795 55.3021L62.1374 55.3158V44.4346H60.8484ZM58.8162 59.2116H58.4796H56.236H55.8995V58.1727H58.8163V59.2116H58.8162ZM57.8349 60.5006V62.1417H56.8804V60.5006H57.8349ZM55.8994 56.8836V55.2527C56.3514 55.2433 57.2051 55.2393 58.8162 55.2583V56.8836H55.8994ZM55.8994 53.9611V52.432H58.8162V53.9689C57.3591 53.9504 56.4631 53.9459 55.8994 53.9611ZM55.8994 21.9561L57.3577 18.4803L58.816 21.9561V23.2742H55.8993L55.8994 21.9561ZM55.8994 36.7246V24.5634H58.8162V36.7246V51.1429H55.8994V36.7246Z" fill="black"/>
</svg>
