<svg width="25" height="25" viewBox="0 0 25 25" fill="none" xmlns="http://www.w3.org/2000/svg">
<path d="M17.7407 13.0532L9.92817 20.8657C9.85558 20.9383 9.76941 20.9958 9.67457 21.0351C9.57973 21.0744 9.47809 21.0946 9.37543 21.0946C9.27278 21.0946 9.17113 21.0744 9.0763 21.0351C8.98146 20.9958 8.89529 20.9383 8.8227 20.8657C8.75011 20.7931 8.69254 20.7069 8.65325 20.6121C8.61397 20.5172 8.59375 20.4156 8.59375 20.3129C8.59375 20.2103 8.61397 20.1086 8.65325 20.0138C8.69254 19.919 8.75011 19.8328 8.8227 19.7602L16.0834 12.5004L8.8227 5.24067C8.67611 5.09407 8.59375 4.89525 8.59375 4.68793C8.59375 4.48062 8.67611 4.28179 8.8227 4.1352C8.96929 3.98861 9.16812 3.90625 9.37543 3.90625C9.58275 3.90625 9.78157 3.98861 9.92817 4.1352L17.7407 11.9477C17.8133 12.0203 17.8709 12.1064 17.9102 12.2013C17.9496 12.2961 17.9698 12.3978 17.9698 12.5004C17.9698 12.6031 17.9496 12.7048 17.9102 12.7996C17.8709 12.8944 17.8133 12.9806 17.7407 13.0532Z" fill="black"/>
</svg>
