<svg width="70" height="70" viewBox="0 0 70 70" fill="none" xmlns="http://www.w3.org/2000/svg">
<path d="M27.344 9.84375C27.344 8.32949 27.793 6.84923 28.6343 5.59017C29.4756 4.3311 30.6713 3.34978 32.0703 2.7703C33.4693 2.19082 35.0087 2.0392 36.4939 2.33462C37.9791 2.63003 39.3433 3.35922 40.414 4.42997C41.4848 5.50071 42.2139 6.86493 42.5094 8.35009C42.8048 9.83526 42.6532 11.3747 42.0737 12.7737C41.4942 14.1727 40.5129 15.3684 39.2538 16.2097C37.9947 17.051 36.5145 17.5 35.0002 17.5C32.9697 17.5 31.0223 16.6934 29.5864 15.2575C28.1506 13.8217 27.344 11.8743 27.344 9.84375ZM62.2346 25.3121C62.0353 24.332 61.5001 23.4523 60.7213 22.8248C59.9425 22.1972 58.969 21.8613 57.969 21.875H12.0315C11.034 21.875 10.0665 22.2157 9.28929 22.8409C8.51205 23.466 7.97176 24.3379 7.75795 25.3122C7.54414 26.2865 7.66966 27.3045 8.1137 28.1977C8.55774 29.0908 9.29365 29.8054 10.1994 30.2231H10.2159L24.9514 36.7117L18.9577 59.4891C18.5002 60.5355 18.4701 61.7193 18.8737 62.7876C19.2774 63.8559 20.0827 64.7241 21.1178 65.2066C21.6963 65.4813 22.3286 65.6242 22.969 65.625C23.7937 65.6262 24.602 65.3943 25.3006 64.956C25.9992 64.5176 26.5597 63.8908 26.9174 63.1477L35.0002 49.2188L43.0885 63.1641C43.5916 64.1874 44.4743 64.9739 45.5488 65.3561C46.6232 65.7382 47.8043 65.6857 48.8406 65.2098C49.8769 64.7339 50.6864 63.8722 51.0967 62.8082C51.507 61.7443 51.4857 60.5622 51.0373 59.5137L45.0436 36.7363L59.8092 30.2395C60.7255 29.831 61.4698 29.1145 61.9129 28.2144C62.356 27.3143 62.4698 26.2874 62.2346 25.3121Z" fill="#898A8B"/>
</svg>
