<svg width="40" height="65" viewBox="0 0 40 65" fill="none" xmlns="http://www.w3.org/2000/svg">
<path fill-rule="evenodd" clip-rule="evenodd" d="M20 26.7403C19.1159 26.7403 18.2681 27.3038 17.643 28.3068C17.0179 29.3097 16.6667 30.67 16.6667 32.0884C16.6667 33.5069 17.0179 34.8672 17.643 35.8701C18.2681 36.8731 19.1159 37.4366 20 37.4366C20.8841 37.4366 21.7319 36.8731 22.357 35.8701C22.9821 34.8672 23.3333 33.5069 23.3333 32.0884C23.3333 30.67 22.9821 29.3097 22.357 28.3068C21.7319 27.3038 20.8841 26.7403 20 26.7403ZM15 32.0884C15 29.9608 15.5268 27.9204 16.4645 26.4159C17.4021 24.9115 18.6739 24.0663 20 24.0663C21.3261 24.0663 22.5979 24.9115 23.5355 26.4159C24.4732 27.9204 25 29.9608 25 32.0884C25 34.2161 24.4732 36.2565 23.5355 37.761C22.5979 39.2654 21.3261 40.1106 20 40.1106C18.6739 40.1106 17.4021 39.2654 16.4645 37.761C15.5268 36.2565 15 34.2161 15 32.0884ZM14.1167 22.3255C10.85 27.7137 10.85 36.4632 14.1167 41.8514L12.92 43.7179C9.02667 37.2895 9.02667 26.8874 12.92 20.459L14.115 22.3255H14.1167ZM25.8833 41.8514C29.15 36.4632 29.15 27.7137 25.8833 22.3255L27.08 20.459C30.9733 26.8874 30.9733 37.2895 27.08 43.7179L25.885 41.8514H25.8833Z" fill="#FF0000"/>
<path fill-rule="evenodd" clip-rule="evenodd" d="M10.5714 16.9909C9.33377 18.9718 8.35183 21.325 7.68185 23.9157C7.01187 26.5064 6.667 29.2837 6.667 32.0886C6.667 34.8935 7.01187 37.6708 7.68185 40.2615C8.35183 42.8522 9.33377 45.2054 10.5714 47.1863L9.3931 49.0795C8.00023 46.8502 6.89515 44.2019 6.14114 41.2864C5.38714 38.3708 4.99902 35.2452 4.99902 32.0886C4.99902 28.932 5.38714 25.8064 6.14114 22.8908C6.89515 19.9753 8.00023 17.327 9.3931 15.0977L10.5714 16.9909ZM29.4281 47.1863C30.6657 45.2054 31.6477 42.8522 32.3177 40.2615C32.9877 37.6708 33.3325 34.8935 33.3325 32.0886C33.3325 29.2837 32.9877 26.5064 32.3177 23.9157C31.6477 21.325 30.6657 18.9718 29.4281 16.9909L30.6064 15.0977C31.9993 17.327 33.1044 19.9753 33.8584 22.8908C34.6124 25.8064 35.0005 28.932 35.0005 32.0886C35.0005 35.2452 34.6124 38.3708 33.8584 41.2864C33.1044 44.2019 31.9993 46.8502 30.6064 49.0795L29.4281 47.1863Z" fill="#FF0000"/>
</svg>
