<svg width="54" height="54" viewBox="0 0 54 54" fill="none" xmlns="http://www.w3.org/2000/svg">
<path d="M35.4368 23.6253C35.4368 25.9615 34.744 28.2454 33.4461 30.1879C32.1481 32.1304 30.3033 33.6445 28.1448 34.5385C25.9864 35.4326 23.6113 35.6665 21.3199 35.2107C19.0285 34.7549 16.9238 33.6299 15.2718 31.9779C13.6198 30.3259 12.4947 28.2211 12.0389 25.9298C11.5832 23.6384 11.8171 21.2633 12.7111 19.1048C13.6052 16.9464 15.1192 15.1016 17.0618 13.8036C19.0043 12.5056 21.2881 11.8128 23.6244 11.8128C26.7573 11.8128 29.7618 13.0574 31.9771 15.2726C34.1923 17.4879 35.4368 20.4924 35.4368 23.6253ZM48.4432 48.444C48.2864 48.6009 48.1003 48.7254 47.8955 48.8103C47.6906 48.8952 47.471 48.9389 47.2493 48.9389C47.0275 48.9389 46.8079 48.8952 46.6031 48.8103C46.3982 48.7254 46.2121 48.6009 46.0554 48.444L35.4959 37.8824C31.8237 40.9374 27.1152 42.4592 22.3496 42.1312C17.5841 41.8031 13.1285 39.6506 9.90952 36.1212C6.69057 32.5919 4.95612 27.9575 5.06695 23.1819C5.17778 18.4064 7.12535 13.8574 10.5046 10.4812C13.8838 7.10499 18.4345 5.16144 23.2101 5.05483C27.9857 4.94823 32.6186 6.68677 36.1451 9.90883C39.6716 13.1309 41.8202 17.5884 42.144 22.3543C42.4679 27.1201 40.9419 31.8273 37.8837 35.4968L48.4432 46.0562C48.6001 46.2129 48.7245 46.3991 48.8094 46.6039C48.8944 46.8088 48.9381 47.0284 48.9381 47.2501C48.9381 47.4719 48.8944 47.6915 48.8094 47.8963C48.7245 48.1012 48.6001 48.2873 48.4432 48.444ZM23.6244 38.8127C26.6282 38.8127 29.5645 37.922 32.0621 36.2531C34.5596 34.5843 36.5062 32.2124 37.6557 29.4372C38.8052 26.6621 39.106 23.6084 38.52 20.6623C37.934 17.7163 36.4875 15.0101 34.3635 12.8861C32.2395 10.7621 29.5334 9.31569 26.5873 8.72968C23.6413 8.14367 20.5876 8.44443 17.8124 9.59393C15.0373 10.7434 12.6653 12.69 10.9965 15.1876C9.32772 17.6851 8.43699 20.6215 8.43699 23.6253C8.44146 27.6518 10.043 31.5122 12.8902 34.3595C15.7374 37.2067 19.5978 38.8082 23.6244 38.8127Z" fill="#186BAD"/>
</svg>
