<svg width="80" height="80" viewBox="0 0 80 80" fill="none" xmlns="http://www.w3.org/2000/svg">
<path d="M40 0C32.0888 0 24.3552 2.34596 17.7772 6.74121C11.1992 11.1365 6.07234 17.3836 3.04484 24.6927C0.0173307 32.0017 -0.774802 40.0444 0.768607 47.8036C2.31202 55.5629 6.12165 62.6902 11.7157 68.2843C17.3098 73.8784 24.4372 77.688 32.1964 79.2314C39.9556 80.7748 47.9983 79.9827 55.3074 76.9552C62.6164 73.9277 68.8635 68.8008 73.2588 62.2228C77.6541 55.6448 80 47.9113 80 40C79.9876 29.3952 75.7693 19.2282 68.2705 11.7295C60.7718 4.23073 50.6049 0.0124543 40 0ZM40 75.2941C33.0195 75.2941 26.1957 73.2241 20.3917 69.346C14.5876 65.4678 10.0638 59.9556 7.3925 53.5065C4.72118 47.0573 4.02224 39.9608 5.38407 33.1145C6.7459 26.2681 10.1073 19.9793 15.0433 15.0433C19.9793 10.1073 26.2681 6.74588 33.1145 5.38405C39.9609 4.02222 47.0573 4.72116 53.5065 7.39249C59.9557 10.0638 65.4678 14.5876 69.346 20.3916C73.2242 26.1957 75.2941 33.0195 75.2941 40C75.2838 49.3574 71.5619 58.3286 64.9453 64.9453C58.3286 71.5619 49.3574 75.2837 40 75.2941ZM57.349 38.3373C57.7897 38.7784 58.0372 39.3765 58.0372 40C58.0372 40.6235 57.7897 41.2216 57.349 41.6627L44.8 54.2118C44.354 54.6274 43.764 54.8537 43.1545 54.8429C42.5449 54.8321 41.9633 54.5852 41.5322 54.1541C41.1011 53.723 40.8541 53.1414 40.8434 52.5318C40.8326 51.9223 41.0589 51.3323 41.4745 50.8863L50.0039 42.3529H24.3137C23.6897 42.3529 23.0912 42.105 22.65 41.6638C22.2087 41.2225 21.9608 40.624 21.9608 40C21.9608 39.376 22.2087 38.7775 22.65 38.3362C23.0912 37.895 23.6897 37.6471 24.3137 37.6471H50.0039L41.4745 29.1137C41.0589 28.6677 40.8326 28.0777 40.8434 27.4682C40.8541 26.8586 41.1011 26.277 41.5322 25.8459C41.9633 25.4148 42.5449 25.1679 43.1545 25.1571C43.764 25.1463 44.354 25.3726 44.8 25.7882L57.349 38.3373Z" fill="#186BAD" fill-opacity="0.08"/>
</svg>
