<svg width="70" height="70" viewBox="0 0 70 70" fill="none" xmlns="http://www.w3.org/2000/svg">
<path d="M35 6.5625C29.3756 6.5625 23.8775 8.23033 19.201 11.3551C14.5245 14.4798 10.8796 18.9212 8.72719 24.1174C6.57482 29.3137 6.01166 35.0315 7.10893 40.5479C8.2062 46.0642 10.9146 51.1313 14.8917 55.1083C18.8687 59.0854 23.9358 61.7938 29.4521 62.8911C34.9685 63.9883 40.6863 63.4252 45.8826 61.2728C51.0788 59.1205 55.5202 55.4755 58.6449 50.799C61.7697 46.1225 63.4375 40.6244 63.4375 35C63.4296 27.4604 60.4309 20.2318 55.0996 14.9004C49.7682 9.5691 42.5397 6.57046 35 6.5625ZM59.0625 35C59.0649 38.087 58.4707 41.1455 57.3125 44.007L45.0899 36.4902C44.5702 36.1696 43.9888 35.9618 43.3836 35.8805L37.1438 35.0383C36.2839 34.9262 35.4102 35.0703 34.6319 35.4526C33.8536 35.8349 33.2055 36.4384 32.7688 37.1875H30.3844L29.3453 35.0383C29.0581 34.4398 28.6377 33.9151 28.1163 33.5041C27.595 33.0932 26.9865 32.8071 26.3375 32.6676L24.15 32.1945L26.2883 28.4375H30.8574C31.5968 28.4361 32.3238 28.2479 32.9711 27.8906L36.3207 26.0422C36.615 25.8781 36.8901 25.6819 37.141 25.457L44.4992 18.8016C45.237 18.1404 45.7273 17.2476 45.8894 16.2703C46.0514 15.293 45.8755 14.2896 45.3906 13.4258L45.2922 13.248C49.4096 15.2004 52.8889 18.2804 55.3263 22.1305C57.7637 25.9807 59.0592 30.4432 59.0625 35ZM10.9375 35C10.9339 31.4235 11.7318 27.8916 13.2727 24.6641L16.3735 32.941C16.6319 33.6263 17.0582 34.2358 17.6133 34.7135C18.1684 35.1913 18.8346 35.522 19.5508 35.6754L25.4106 36.9359L26.4524 39.1016C26.8139 39.8381 27.3742 40.4589 28.07 40.8938C28.7658 41.3286 29.5693 41.5603 30.3899 41.5625H30.7945L28.8176 46.0004C28.4693 46.7818 28.3577 47.6482 28.4967 48.4924C28.6357 49.3366 29.0191 50.1215 29.5996 50.75L29.6379 50.7883L35 56.3117L34.4695 59.0461C28.1855 58.8999 22.2074 56.3035 17.811 51.811C13.4145 47.3185 10.9479 41.2858 10.9375 35Z" fill="#898A8B"/>
</svg>
