<svg width="27" height="26" viewBox="0 0 27 26" fill="none" xmlns="http://www.w3.org/2000/svg">
<path d="M27.0002 15.8173V25.801H21.2119V16.4864C21.2119 14.1476 20.3762 12.5504 18.2804 12.5504C16.6811 12.5504 15.731 13.6257 15.3114 14.6669C15.159 15.039 15.1197 15.5557 15.1197 16.0776V25.8006H9.33101C9.33101 25.8006 9.40871 10.0247 9.33101 8.39169H15.1202V10.8587C15.1085 10.8781 15.0921 10.8971 15.0817 10.9157H15.1202V10.8587C15.8894 9.67505 17.2612 7.9829 20.3369 7.9829C24.1451 7.9829 27.0002 10.4711 27.0002 15.8173ZM3.27552 0C1.29544 0 0 1.29976 0 3.00745C0 4.67889 1.25789 6.0162 3.19955 6.0162H3.2371C5.25603 6.0162 6.51133 4.67889 6.51133 3.00745C6.47291 1.29976 5.25603 0 3.27552 0ZM0.344042 25.801H6.1306V8.39169H0.344042V25.801Z" fill="#F1F2F2"/>
</svg>
