<svg width="70" height="70" viewBox="0 0 70 70" fill="none" xmlns="http://www.w3.org/2000/svg">
<path d="M59.0625 10.9375H10.9375C9.77718 10.9375 8.66438 11.3984 7.84391 12.2189C7.02344 13.0394 6.5625 14.1522 6.5625 15.3125V54.6875C6.5625 55.8478 7.02344 56.9606 7.84391 57.7811C8.66438 58.6016 9.77718 59.0625 10.9375 59.0625H14.5988C15.0128 59.0626 15.4184 58.9453 15.7683 58.7241C16.1183 58.5029 16.3983 58.1869 16.5758 57.8129C17.6395 55.5671 19.3189 53.6694 21.4188 52.3405C23.5186 51.0116 25.9525 50.3062 28.4375 50.3062C30.9225 50.3062 33.3564 51.0116 35.4562 52.3405C37.5561 53.6694 39.2355 55.5671 40.2992 57.8129C40.4767 58.1869 40.7567 58.5029 41.1067 58.7241C41.4566 58.9453 41.8622 59.0626 42.2762 59.0625H59.0625C60.2228 59.0625 61.3356 58.6016 62.1561 57.7811C62.9766 56.9606 63.4375 55.8478 63.4375 54.6875V15.3125C63.4375 14.1522 62.9766 13.0394 62.1561 12.2189C61.3356 11.3984 60.2228 10.9375 59.0625 10.9375ZM28.4375 45.9375C26.7069 45.9375 25.0152 45.4243 23.5763 44.4629C22.1373 43.5014 21.0158 42.1348 20.3536 40.536C19.6913 38.9371 19.518 37.1778 19.8556 35.4805C20.1932 33.7831 21.0266 32.224 22.2503 31.0003C23.474 29.7766 25.0331 28.9432 26.7305 28.6056C28.4278 28.268 30.1871 28.4413 31.786 29.1036C33.3848 29.7658 34.7514 30.8873 35.7129 32.3263C36.6743 33.7652 37.1875 35.4569 37.1875 37.1875C37.1875 39.5081 36.2656 41.7337 34.6247 43.3747C32.9837 45.0156 30.7581 45.9375 28.4375 45.9375ZM59.0625 54.6875H43.5941C42.6405 53.0432 41.4251 51.5655 39.9957 50.3125H52.5C53.0802 50.3125 53.6366 50.082 54.0468 49.6718C54.457 49.2616 54.6875 48.7052 54.6875 48.125V21.875C54.6875 21.2948 54.457 20.7384 54.0468 20.3282C53.6366 19.918 53.0802 19.6875 52.5 19.6875H17.5C16.9198 19.6875 16.3634 19.918 15.9532 20.3282C15.543 20.7384 15.3125 21.2948 15.3125 21.875V48.125C15.3123 48.6101 15.4733 49.0816 15.7703 49.4652C16.0673 49.8488 16.4834 50.1229 16.9531 50.2441C15.4908 51.5111 14.2497 53.0128 13.2809 54.6875H10.9375V15.3125H59.0625V54.6875Z" fill="#898A8B"/>
</svg>
