<svg width="54" height="54" viewBox="0 0 54 54" fill="none" xmlns="http://www.w3.org/2000/svg">
<g clip-path="url(#clip0_1509_10915)">
<path d="M17.3387 36.4001C16.9843 35.6829 16.2671 35.2358 15.4656 35.2358H3.26502V37.3029C3.26502 38.6529 4.36188 39.7498 5.70344 39.7498H13.5671C13.8118 39.7498 14.0312 39.8848 14.1493 40.1042L18.3765 48.5501C18.7646 49.3179 19.5409 49.7904 20.4015 49.7904C20.7559 49.7904 21.0933 49.706 21.4055 49.5541C22.1733 49.1744 22.6458 48.3982 22.6458 47.5376C22.6458 47.1832 22.5615 46.8372 22.4096 46.5251L17.3387 36.4001ZM8.77467 25.6171C8.32749 25.6171 7.90561 25.7943 7.59343 26.1149C6.94374 26.7646 6.94374 27.8277 7.59343 28.4858L11.8459 32.7383C11.9387 32.8311 12.0653 32.8817 12.1918 32.8817H20.5365C21.4646 32.8817 22.2155 32.1308 22.2155 31.2027C22.2155 30.2745 21.4646 29.5236 20.5365 29.5236H13.4743C13.4068 29.5236 13.3478 29.4983 13.3056 29.4477L9.97279 26.1149C9.64373 25.7943 9.22186 25.6171 8.77467 25.6171Z" fill="#186BAD"/>
<path d="M12.8924 33.361H12.1836C11.9136 33.361 11.669 33.2598 11.4833 33.0657L7.23929 28.8301C6.40398 27.9864 6.40398 26.6111 7.23929 25.7673C7.62741 25.3792 8.19272 25.1598 8.77491 25.1598C9.35709 25.1598 9.91396 25.3792 10.3021 25.7673L12.9008 28.366L12.808 27.8598C12.6393 26.8979 12.1752 26.012 11.4749 25.3117C10.5721 24.4089 9.37397 23.9111 8.09991 23.9026C6.80898 23.9111 5.63618 24.392 4.71649 25.3033C3.78837 26.2314 3.24838 27.5139 3.24838 28.8048V34.7532H12.8839V33.361H12.8924ZM8.21804 22.232C10.4877 22.232 12.3355 20.3842 12.3355 18.1145C12.3355 15.8449 10.4877 14.0055 8.21804 14.0055C5.94836 14.0055 4.10056 15.8533 4.10056 18.1145C4.10056 20.3842 5.94836 22.232 8.21804 22.232Z" fill="#186BAD"/>
<path d="M12.6224 40.2463H2.10936V24.9829C2.10936 24.4008 1.63687 23.9283 1.05468 23.9283C0.472497 23.9283 0 24.4008 0 24.9829V41.2925V50.8522C0 51.4344 0.472497 51.9068 1.05468 51.9068C1.63687 51.9068 2.10936 51.4344 2.10936 50.8522V42.3472H11.5677V50.8522C11.5677 51.4344 12.0402 51.9068 12.6224 51.9068C13.2046 51.9068 13.6771 51.4344 13.6771 50.8522V41.2925C13.6771 40.7188 13.2046 40.2463 12.6224 40.2463ZM48.296 39.7569C49.6375 39.7569 50.7344 38.6601 50.7344 37.3101V35.2429H38.5423C37.7407 35.2429 37.0151 35.6901 36.6607 36.4073L31.5814 46.5406C31.4295 46.8528 31.3451 47.1988 31.3451 47.5531C31.3451 48.4137 31.8176 49.19 32.5854 49.5697C32.9061 49.73 33.2435 49.8059 33.5979 49.8059C33.8426 49.8059 34.0873 49.7637 34.3151 49.6878C34.8804 49.4937 35.3445 49.0972 35.6145 48.5572L39.8332 40.1113C39.9513 39.8835 40.1707 39.7485 40.4154 39.7485H48.296V39.7569ZM45.2247 25.1264C45.7985 25.1264 46.3385 25.3542 46.7519 25.7592C47.1653 26.1726 47.3847 26.7211 47.3847 27.2948C47.3847 27.877 47.1569 28.417 46.7519 28.822L42.4994 33.066C42.3222 33.2516 42.0691 33.3529 41.816 33.3529H41.0988V34.7451H50.7344V28.7967C50.7344 27.5057 50.2028 26.2233 49.2663 25.2951C48.355 24.3923 47.1653 23.8945 45.8828 23.8945C44.6088 23.903 43.4107 24.4008 42.5079 25.3036C41.7991 26.0123 41.3435 26.8898 41.1832 27.8601L41.0988 28.3579L43.6891 25.7592C44.1025 25.3542 44.6425 25.1264 45.2247 25.1264Z" fill="#186BAD"/>
<path d="M31.7837 31.1939C31.7837 32.122 32.5347 32.8729 33.4628 32.8729H41.8159C41.934 32.8729 42.069 32.8139 42.1534 32.7295L46.4058 28.477C46.7265 28.1564 46.9037 27.7345 46.9037 27.2958C46.9037 26.8486 46.7265 26.4267 46.4058 26.1145C46.0852 25.7939 45.6633 25.6167 45.2246 25.6167C44.7858 25.6167 44.3555 25.7939 44.0349 26.1145L40.6937 29.4558C40.6515 29.4979 40.5924 29.5233 40.5334 29.5233H33.4712C32.5431 29.5148 31.7837 30.2658 31.7837 31.1939ZM45.7815 22.2755C48.0511 22.2755 49.8989 20.4277 49.8989 18.158C49.8989 15.8883 48.0511 14.0405 45.7815 14.0405C43.5118 14.0405 41.664 15.8883 41.664 18.158C41.664 20.4277 43.5118 22.2755 45.7815 22.2755ZM52.9449 23.9292C52.3627 23.9292 51.8902 24.4017 51.8902 24.9839V40.2473H41.3771C40.7949 40.2473 40.3224 40.7198 40.3224 41.3019V50.8616C40.3224 51.4438 40.7949 51.9163 41.3771 51.9163C41.9593 51.9163 42.4318 51.4438 42.4318 50.8616V42.3482H51.8902V50.8531C51.8902 51.4353 52.3627 51.9078 52.9449 51.9078C53.527 51.9078 53.9995 51.4353 53.9995 50.8531V41.2935V24.9839C53.9995 24.4017 53.527 23.9292 52.9449 23.9292ZM37.749 34.4085C37.749 33.8264 37.2765 33.3539 36.6943 33.3539H17.187C16.6048 33.3539 16.1323 33.8264 16.1323 34.4085C16.1323 34.9907 16.6048 35.4632 17.187 35.4632H25.8944V50.1275C25.8944 50.7097 26.3669 51.1822 26.9491 51.1822C27.5313 51.1822 28.0038 50.7097 28.0038 50.1275V35.4632H36.7028C37.2765 35.4632 37.749 34.9907 37.749 34.4085ZM26.9997 20.453C32.0706 20.453 36.1881 16.3355 36.1881 11.2731C36.1797 6.20215 32.0622 2.08468 26.9997 2.08468C21.9372 2.08468 17.8198 6.20215 17.8198 11.2731C17.8198 16.3355 21.9372 20.453 26.9997 20.453ZM22.7135 11.0199C22.8654 10.8681 23.0679 10.7837 23.2788 10.7837C23.4982 10.7837 23.7007 10.8681 23.8525 11.0199L25.54 12.7074L30.1384 8.10902C30.2903 7.96558 30.4928 7.87277 30.7037 7.87277C30.9231 7.87277 31.1256 7.96558 31.2775 8.10902C31.5897 8.4212 31.5897 8.94432 31.2775 9.25651L26.1138 14.4202C25.9619 14.5721 25.7594 14.6565 25.54 14.6565C25.3291 14.6565 25.1182 14.5721 24.9663 14.4202L22.7135 12.159C22.5616 12.0071 22.4688 11.8046 22.4688 11.5937C22.4688 11.3827 22.5616 11.1802 22.7135 11.0199Z" fill="#186BAD"/>
</g>
<defs>
<clipPath id="clip0_1509_10915">
<rect width="53.8805" height="53.8805" fill="white" transform="scale(1.00221)"/>
</clipPath>
</defs>
</svg>
