<svg width="233" height="37" viewBox="0 0 233 37" fill="none" xmlns="http://www.w3.org/2000/svg">
<path d="M32.8358 16.403L26.5207 22.0478L28.4124 30.4518C28.5125 30.8911 28.484 31.351 28.3303 31.7738C28.1766 32.1966 27.9047 32.5636 27.5485 32.8289C27.1923 33.0943 26.7676 33.2462 26.3275 33.2658C25.8874 33.2853 25.4515 33.1715 25.0742 32.9386L17.9176 28.4928L10.7764 32.9386C10.3991 33.1715 9.96323 33.2853 9.52316 33.2658C9.08309 33.2462 8.6584 33.0943 8.30218 32.8289C7.94596 32.5636 7.67403 32.1966 7.52036 31.7738C7.3667 31.351 7.33814 30.8911 7.43824 30.4518L9.32717 22.0564L3.01069 16.403C2.67661 16.1079 2.43503 15.7183 2.31625 15.2832C2.19747 14.848 2.20679 14.3866 2.34302 13.9568C2.47925 13.527 2.73634 13.148 3.08204 12.8673C3.42775 12.5866 3.84668 12.4167 4.28631 12.3788L12.6121 11.6402L15.8621 3.70086C16.0318 3.28427 16.3181 2.92842 16.6848 2.67812C17.0516 2.42782 17.4825 2.29426 17.9232 2.29426C18.364 2.29426 18.7948 2.42782 19.1616 2.67812C19.5284 2.92842 19.8147 3.28427 19.9844 3.70086L23.2441 11.6402L31.5671 12.3788C32.0068 12.4167 32.4257 12.5866 32.7714 12.8673C33.1171 13.148 33.3742 13.527 33.5104 13.9568C33.6467 14.3866 33.656 14.848 33.5372 15.2832C33.4184 15.7183 33.1769 16.1079 32.8428 16.403H32.8358Z" fill="#FBBC05"/>
<path d="M82.1242 16.403L75.8092 22.0478L77.7009 30.4518C77.801 30.8911 77.7724 31.351 77.6188 31.7738C77.4651 32.1966 77.1932 32.5636 76.8369 32.8289C76.4807 33.0943 76.056 33.2462 75.616 33.2658C75.1759 33.2853 74.74 33.1715 74.3627 32.9386L67.2061 28.4928L60.0649 32.9386C59.6876 33.1715 59.2517 33.2853 58.8116 33.2658C58.3716 33.2462 57.9469 33.0943 57.5906 32.8289C57.2344 32.5636 56.9625 32.1966 56.8088 31.7738C56.6552 31.351 56.6266 30.8911 56.7267 30.4518L58.6156 22.0564L52.2992 16.403C51.9651 16.1079 51.7235 15.7183 51.6047 15.2832C51.4859 14.848 51.4952 14.3866 51.6315 13.9568C51.7677 13.527 52.0248 13.148 52.3705 12.8673C52.7162 12.5866 53.1351 12.4167 53.5748 12.3788L61.9006 11.6402L65.1505 3.70086C65.3203 3.28427 65.6065 2.92842 65.9733 2.67812C66.3401 2.42782 66.771 2.29426 67.2117 2.29426C67.6524 2.29426 68.0833 2.42782 68.4501 2.67812C68.8169 2.92842 69.1031 3.28427 69.2728 3.70086L72.5326 11.6402L80.8556 12.3788C81.2952 12.4167 81.7142 12.5866 82.0599 12.8673C82.4056 13.148 82.6627 13.527 82.7989 13.9568C82.9351 14.3866 82.9444 14.848 82.8257 15.2832C82.7069 15.7183 82.4653 16.1079 82.1312 16.403H82.1242Z" fill="#FBBC05"/>
<path d="M131.413 16.403L125.098 22.0478L126.989 30.4518C127.089 30.8911 127.061 31.351 126.907 31.7738C126.754 32.1966 126.482 32.5636 126.125 32.8289C125.769 33.0943 125.344 33.2462 124.904 33.2658C124.464 33.2853 124.028 33.1715 123.651 32.9386L116.495 28.4928L109.353 32.9386C108.976 33.1715 108.54 33.2853 108.1 33.2658C107.66 33.2462 107.235 33.0943 106.879 32.8289C106.523 32.5636 106.251 32.1966 106.097 31.7738C105.944 31.351 105.915 30.8911 106.015 30.4518L107.904 22.0564L101.588 16.403C101.254 16.1079 101.012 15.7183 100.893 15.2832C100.774 14.848 100.784 14.3866 100.92 13.9568C101.056 13.527 101.313 13.148 101.659 12.8673C102.005 12.5866 102.424 12.4167 102.863 12.3788L111.189 11.6402L114.439 3.70086C114.609 3.28427 114.895 2.92842 115.262 2.67812C115.629 2.42782 116.059 2.29426 116.5 2.29426C116.941 2.29426 117.372 2.42782 117.739 2.67812C118.105 2.92842 118.392 3.28427 118.561 3.70086L121.821 11.6402L130.144 12.3788C130.584 12.4167 131.003 12.5866 131.348 12.8673C131.694 13.148 131.951 13.527 132.087 13.9568C132.224 14.3866 132.233 14.848 132.114 15.2832C131.995 15.7183 131.754 16.1079 131.42 16.403H131.413Z" fill="#FBBC05"/>
<path d="M180.701 16.403L174.386 22.0478L176.278 30.4518C176.378 30.8911 176.349 31.351 176.196 31.7738C176.042 32.1966 175.77 32.5636 175.414 32.8289C175.058 33.0943 174.633 33.2462 174.193 33.2658C173.753 33.2853 173.317 33.1715 172.94 32.9386L165.783 28.4928L158.642 32.9386C158.265 33.1715 157.829 33.2853 157.389 33.2658C156.948 33.2462 156.524 33.0943 156.168 32.8289C155.811 32.5636 155.539 32.1966 155.386 31.7738C155.232 31.351 155.204 30.8911 155.304 30.4518L157.193 22.0564L150.876 16.403C150.542 16.1079 150.3 15.7183 150.182 15.2832C150.063 14.848 150.072 14.3866 150.208 13.9568C150.345 13.527 150.602 13.148 150.947 12.8673C151.293 12.5866 151.712 12.4167 152.152 12.3788L160.478 11.6402L163.727 3.70086C163.897 3.28427 164.183 2.92842 164.55 2.67812C164.917 2.42782 165.348 2.29426 165.789 2.29426C166.229 2.29426 166.66 2.42782 167.027 2.67812C167.394 2.92842 167.68 3.28427 167.85 3.70086L171.11 11.6402L179.433 12.3788C179.872 12.4167 180.291 12.5866 180.637 12.8673C180.983 13.148 181.24 13.527 181.376 13.9568C181.512 14.3866 181.521 14.848 181.403 15.2832C181.284 15.7183 181.042 16.1079 180.708 16.403H180.701Z" fill="#FBBC05"/>
<path d="M229.99 16.403L223.675 22.0478L225.566 30.4518C225.666 30.8911 225.638 31.351 225.484 31.7738C225.33 32.1966 225.059 32.5636 224.702 32.8289C224.346 33.0943 223.921 33.2462 223.481 33.2658C223.041 33.2853 222.605 33.1715 222.228 32.9386L215.071 28.4928L207.93 32.9386C207.553 33.1715 207.117 33.2853 206.677 33.2658C206.237 33.2462 205.812 33.0943 205.456 32.8289C205.1 32.5636 204.828 32.1966 204.674 31.7738C204.521 31.351 204.492 30.8911 204.592 30.4518L206.481 22.0564L200.165 16.403C199.83 16.1079 199.589 15.7183 199.47 15.2832C199.351 14.848 199.361 14.3866 199.497 13.9568C199.633 13.527 199.89 13.148 200.236 12.8673C200.582 12.5866 201.001 12.4167 201.44 12.3788L209.766 11.6402L213.016 3.70086C213.186 3.28427 213.472 2.92842 213.839 2.67812C214.205 2.42782 214.636 2.29426 215.077 2.29426C215.518 2.29426 215.949 2.42782 216.315 2.67812C216.682 2.92842 216.969 3.28427 217.138 3.70086L220.398 11.6402L228.721 12.3788C229.161 12.4167 229.58 12.5866 229.925 12.8673C230.271 13.148 230.528 13.527 230.664 13.9568C230.801 14.3866 230.81 14.848 230.691 15.2832C230.572 15.7183 230.331 16.1079 229.997 16.403H229.99Z" fill="#FBBC05"/>
</svg>
