<svg width="80" height="80" viewBox="0 0 80 80" fill="none" xmlns="http://www.w3.org/2000/svg">
<path d="M40 0C32.0888 0 24.3552 2.34596 17.7772 6.74121C11.1992 11.1365 6.07234 17.3836 3.04484 24.6927C0.0173307 32.0017 -0.774802 40.0444 0.768607 47.8036C2.31202 55.5629 6.12165 62.6902 11.7157 68.2843C17.3098 73.8784 24.4372 77.688 32.1964 79.2314C39.9556 80.7748 47.9983 79.9827 55.3074 76.9552C62.6164 73.9277 68.8635 68.8008 73.2588 62.2228C77.6541 55.6448 80 47.9113 80 40C79.9876 29.3952 75.7693 19.2282 68.2705 11.7295C60.7718 4.23073 50.6049 0.0124543 40 0ZM40 75.2941C33.0195 75.2941 26.1957 73.2241 20.3917 69.346C14.5876 65.4678 10.0638 59.9556 7.3925 53.5065C4.72118 47.0573 4.02224 39.9608 5.38407 33.1145C6.7459 26.2681 10.1073 19.9793 15.0433 15.0433C19.9793 10.1073 26.2681 6.74588 33.1145 5.38405C39.9609 4.02222 47.0573 4.72116 53.5065 7.39249C59.9557 10.0638 65.4678 14.5876 69.346 20.3916C73.2242 26.1957 75.2941 33.0195 75.2941 40C75.2838 49.3574 71.5619 58.3286 64.9453 64.9453C58.3286 71.5619 49.3574 75.2837 40 75.2941ZM58.0392 40C58.0392 40.624 57.7913 41.2225 57.3501 41.6638C56.9088 42.105 56.3103 42.3529 55.6863 42.3529H29.9961L38.5255 50.8863C38.7567 51.1017 38.9421 51.3614 39.0707 51.6501C39.1993 51.9387 39.2685 52.2503 39.274 52.5662C39.2796 52.8821 39.2215 53.1959 39.1031 53.4889C38.9848 53.7819 38.8087 54.0481 38.5852 54.2715C38.3618 54.4949 38.0957 54.6711 37.8027 54.7894C37.5097 54.9077 37.1959 54.9659 36.8799 54.9603C36.564 54.9547 36.2524 54.8856 35.9638 54.757C35.6752 54.6284 35.4154 54.4429 35.2 54.2118L22.651 41.6627C22.2104 41.2216 21.9629 40.6235 21.9629 40C21.9629 39.3765 22.2104 38.7784 22.651 38.3373L35.2 25.7882C35.6461 25.3726 36.236 25.1463 36.8456 25.1571C37.4552 25.1679 38.0367 25.4148 38.4679 25.8459C38.899 26.277 39.1459 26.8586 39.1566 27.4682C39.1674 28.0777 38.9411 28.6677 38.5255 29.1137L29.9961 37.6471H55.6863C56.3103 37.6471 56.9088 37.895 57.3501 38.3362C57.7913 38.7775 58.0392 39.376 58.0392 40Z" fill="#D9D9D9" fill-opacity="0.38"/>
</svg>
