<svg width="68" height="67" viewBox="0 0 68 67" fill="none" xmlns="http://www.w3.org/2000/svg">
<path d="M34.0003 24.4277C28.9148 24.4277 24.792 28.4899 24.792 33.5007C24.792 38.5114 28.9148 42.5736 34.0003 42.5736C39.0859 42.5736 43.2087 38.5114 43.2087 33.5007C43.2087 28.4899 39.0859 24.4277 34.0003 24.4277Z" fill="#EE4D4D"/>
<path fill-rule="evenodd" clip-rule="evenodd" d="M24.4626 20.8328C25.304 21.6389 25.3229 22.9645 24.5048 23.7935C19.221 29.1482 19.221 37.8531 24.5048 43.2078C25.3229 44.037 25.304 45.3624 24.4626 46.1684C23.6211 46.9746 22.2758 46.9559 21.4577 46.1268C14.5701 39.1471 14.5701 27.8542 21.4577 20.8744C22.2758 20.0454 23.6211 20.0267 24.4626 20.8328ZM43.5382 20.8328C44.3794 20.0267 45.7249 20.0454 46.5429 20.8744C53.4305 27.8542 53.4305 39.1471 46.5429 46.1268C45.7249 46.9559 44.3794 46.9746 43.5382 46.1684C42.6967 45.3624 42.6777 44.037 43.496 43.2078C48.7796 37.8531 48.7796 29.1482 43.496 23.7935C42.6777 22.9645 42.6967 21.6389 43.5382 20.8328Z" fill="#EE4D4D"/>
<path fill-rule="evenodd" clip-rule="evenodd" d="M18.4747 15.2708C19.3039 16.0892 19.3027 17.4148 18.4721 18.2318C9.8986 26.6646 9.8986 40.3354 18.4721 48.7682C19.3027 49.5853 19.3039 50.9108 18.4747 51.7293C17.6456 52.5475 16.3001 52.5487 15.4695 51.7318C5.23281 41.6631 5.23281 25.3369 15.4695 15.2682C16.3001 14.4513 17.6456 14.4524 18.4747 15.2708ZM49.5259 15.2708C50.3552 14.4524 51.7004 14.4513 52.5312 15.2682C62.7677 25.3369 62.7677 41.6631 52.5312 51.7318C51.7004 52.5487 50.3552 52.5475 49.5259 51.7293C48.6968 50.9108 48.698 49.5853 49.5284 48.7682C58.1021 40.3354 58.1021 26.6646 49.5284 18.2318C48.698 17.4148 48.6968 16.0892 49.5259 15.2708Z" fill="#EE4D4D"/>
<path fill-rule="evenodd" clip-rule="evenodd" d="M43.2087 33.5H24.792C24.792 38.5108 28.9148 42.5729 34.0003 42.5729C39.0859 42.5729 43.2087 38.5108 43.2087 33.5ZM47.4587 33.5H51.7087C51.7087 38.0683 49.9868 42.6363 46.5429 46.1262C45.7249 46.9553 44.3794 46.974 43.5382 46.1677C42.6967 45.3618 42.6777 44.0363 43.496 43.2072C46.1378 40.53 47.4587 37.015 47.4587 33.5ZM20.542 33.5C20.542 37.015 21.863 40.53 24.5048 43.2072C25.3229 44.0363 25.304 45.3618 24.4626 46.1677C23.6211 46.974 22.2758 46.9553 21.4577 46.1262C18.0139 42.6363 16.292 38.0683 16.292 33.5H20.542ZM55.9587 33.5H60.2087C60.2087 40.0987 57.6496 46.6973 52.5312 51.7318C51.7004 52.5487 50.3552 52.5475 49.5259 51.7293C48.6968 50.9108 48.698 49.5853 49.5284 48.7682C53.8152 44.5519 55.9587 39.0258 55.9587 33.5ZM12.042 33.5C12.042 39.0258 14.1854 44.5519 18.4721 48.7682C19.3027 49.5853 19.3039 50.9108 18.4747 51.7293C17.6456 52.5475 16.3001 52.5487 15.4695 51.7318C10.3512 46.6973 7.79199 40.0987 7.79199 33.5H12.042Z" fill="#D64545"/>
</svg>
